# Blender v2.77 (sub 0) OBJ File: 'Ground.blend'
# www.blender.org
mtllib Ground.mtl
o Plane
v -1.000000 0.000000 1.000000
v 1.000000 0.000000 1.000000
v -1.000000 0.000000 -1.000000
v 1.000000 0.000000 -1.000000
v -1.000000 0.000000 0.014898
v 1.000000 0.000000 0.014898
v -1.000000 0.000000 0.538455
v 1.000000 0.000000 0.538455
v 1.000000 0.000000 -0.530409
v -1.000000 0.000000 -0.530409
v -0.095551 0.000000 1.000000
v -0.095551 0.000000 -1.000000
v -0.095551 0.000000 0.014898
v -0.095551 0.000000 0.538455
v -0.095551 -0.041283 -0.530409
v 0.410789 0.000000 1.000000
v 0.410789 0.000000 -1.000000
v 0.410789 0.079247 0.014898
v 0.410789 0.000000 0.538455
v 0.410789 -0.043730 -0.530409
v -0.612519 0.000000 -1.000000
v -0.633492 -0.018450 0.014898
v -0.612519 0.000872 0.538455
v -0.612519 0.000000 -0.530409
v -0.612519 0.000000 1.000000
v -0.343758 0.000000 1.000000
v -0.343758 0.000000 -1.000000
v -0.343758 -0.048620 0.014898
v -0.343758 0.000000 0.538455
v -0.343758 -0.029970 -0.530409
v 0.160495 0.000000 -1.000000
v 0.087078 0.051893 0.014898
v 0.160495 0.000000 0.538455
v 0.160495 -0.018787 -0.530409
v 0.160495 0.000000 1.000000
v 0.705985 0.000000 1.000000
v 0.705985 0.000000 -1.000000
v 0.705985 -0.019522 0.014898
v 0.750650 0.041067 0.568261
v 0.705985 -0.032731 -0.530409
v 1.000000 0.000000 0.283945
v -1.000000 0.000000 0.283945
v -0.095551 0.000000 0.283945
v 0.410789 0.048899 0.230857
v -0.612519 -0.046244 0.283945
v -0.343758 -0.027941 0.283945
v 0.160495 0.067180 0.283945
v 0.705985 0.000000 0.283945
v -1.000000 0.000000 0.755381
v 1.000000 0.000000 0.755381
v -0.095551 0.014568 0.727906
v 0.410789 0.013609 0.777640
v -0.612519 -0.022440 0.755381
v -0.316940 0.020284 0.776062
v 0.160495 0.000000 0.755381
v 0.705985 0.000000 0.755381
v -1.000000 0.000000 -0.273150
v 1.000000 0.000000 -0.273150
v -0.095551 0.000000 -0.273150
v 0.410789 0.000000 -0.273150
v -0.590192 -0.041879 -0.243087
v -0.343758 -0.057331 -0.273150
v 0.160495 0.000000 -0.273150
v 0.705985 0.000000 -0.273150
v 1.000000 0.000000 -0.738687
v -1.000000 0.000000 -0.738687
v -0.091755 -0.005698 -0.730305
v 0.410789 -0.017988 -0.738687
v -0.602638 0.025931 -0.742816
v -0.342035 -0.000037 -0.736505
v 0.160495 -0.012938 -0.738687
v 0.705985 -0.022520 -0.738687
v -0.807136 0.000000 -1.000000
v -0.807136 0.015684 0.014898
v -0.807136 0.000000 0.538455
v -0.807136 0.014457 -0.530409
v -0.807136 0.000000 1.000000
v -0.807136 0.021180 0.283945
v -0.807136 -0.012505 0.755381
v -0.807136 0.026549 -0.273150
v -0.807136 0.000000 -0.738687
vn -0.0382 0.9983 0.0430
vn -0.0332 0.9988 -0.0362
vn 0.0809 0.9907 0.1096
vn -0.0555 0.9964 -0.0634
vn -0.0923 0.9954 -0.0269
vn 0.0038 0.9967 -0.0816
vn -0.1523 0.9876 -0.0380
vn 0.0112 0.9999 0.0106
vn 0.0494 0.9915 -0.1205
vn -0.0258 0.9992 -0.0298
vn -0.0127 0.9994 0.0330
vn 0.0101 0.9982 0.0591
vn -0.0653 0.9967 -0.0486
vn 0.2657 0.9636 0.0296
vn 0.0232 0.9963 0.0823
vn 0.1940 0.9799 0.0456
vn 0.0495 0.9975 -0.0507
vn 0.0212 0.9997 0.0124
vn -0.0744 0.9972 0.0110
vn 0.0942 0.9881 0.1218
vn 0.0148 0.9993 0.0350
vn -0.2619 0.9650 0.0083
vn 0.0303 0.9989 -0.0358
vn -0.0436 0.9923 -0.1159
vn -0.0184 0.9890 -0.1470
vn -0.0438 0.9973 0.0596
vn 0.2408 0.9703 0.0217
vn 0.0077 0.9970 0.0773
vn 0.0107 0.9999 0.0124
vn -0.1290 0.9831 0.1298
vn -0.0321 0.9888 -0.1458
vn 0.1683 0.9845 -0.0502
vn 0.0571 0.9777 0.2019
vn -0.0561 0.9969 -0.0547
vn 0.0707 0.9942 -0.0816
vn 0.0241 0.9993 0.0291
vn 0.0269 0.9992 0.0282
vn -0.0752 0.9971 -0.0089
vn 0.0255 0.9971 -0.0712
vn -0.0285 0.9992 0.0291
vn 0.0194 0.9973 0.0711
vn 0.0000 1.0000 0.0000
vn 0.1641 0.9812 -0.1017
vn -0.1168 0.9877 -0.1039
vn 0.0818 0.9953 -0.0521
vn 0.2541 0.9672 -0.0021
vn -0.0464 0.9727 -0.2273
vn -0.2087 0.9779 -0.0148
vn -0.0332 0.9989 0.0338
vn -0.0109 0.9962 0.0860
vn -0.0282 0.9945 0.1007
vn 0.1025 0.9856 0.1344
vn -0.0285 0.9992 0.0266
vn 0.0596 0.9954 0.0755
vn 0.0316 0.9867 0.1597
vn -0.0935 0.9953 0.0244
vn -0.0374 0.9987 -0.0347
vn -0.1088 0.9939 0.0187
vn 0.0324 0.9991 -0.0255
vn -0.0548 0.9976 0.0415
vn -0.1057 0.9941 -0.0234
vn 0.0324 0.9991 0.0288
vn -0.0951 0.9954 -0.0102
usemtl Material
s off
f 72//1 65//1 4//1 37//1
f 48//2 41//2 6//2 38//2
f 56//3 50//3 8//3 39//3
f 64//4 58//4 9//4 40//4
f 62//5 59//5 15//5 30//5
f 54//6 51//6 14//6 29//6
f 46//7 43//7 13//7 28//7
f 70//8 67//8 12//8 27//8
f 63//9 60//9 20//9 34//9
f 55//10 52//10 19//10 33//10
f 47//11 44//11 18//11 32//11
f 71//12 68//12 17//12 31//12
f 81//13 69//13 21//13 73//13
f 78//14 45//14 22//14 74//14
f 79//15 53//15 23//15 75//15
f 80//16 61//16 24//16 76//16
f 69//17 70//17 27//17 21//17
f 45//18 46//18 28//18 22//18
f 53//19 54//19 29//19 23//19
f 61//20 62//20 30//20 24//20
f 67//21 71//21 31//21 12//21
f 43//22 47//22 32//22 13//22
f 51//23 55//23 33//23 14//23
f 59//24 63//24 34//24 15//24
f 60//25 64//25 40//25 20//25
f 52//26 56//26 39//26 19//26
f 44//27 48//27 38//27 18//27
f 68//28 72//28 37//28 17//28
f 19//29 39//29 48//29 44//29
f 14//30 33//30 47//30 43//30
f 23//31 29//31 46//31 45//31
f 75//32 23//32 45//32 78//32
f 33//33 19//33 44//33 47//33
f 29//34 14//34 43//34 46//34
f 39//35 8//35 41//35 48//35
f 16//36 36//36 56//36 52//36
f 11//37 35//37 55//37 51//37
f 25//38 26//38 54//38 53//38
f 77//39 25//39 53//39 79//39
f 35//40 16//40 52//40 55//40
f 26//41 11//41 51//41 54//41
f 36//42 2//42 50//42 56//42
f 18//43 38//43 64//43 60//43
f 13//44 32//44 63//44 59//44
f 22//45 28//45 62//45 61//45
f 74//46 22//46 61//46 80//46
f 32//47 18//47 60//47 63//47
f 28//48 13//48 59//48 62//48
f 38//49 6//49 58//49 64//49
f 20//50 40//50 72//50 68//50
f 15//51 34//51 71//51 67//51
f 24//52 30//52 70//52 69//52
f 76//53 24//53 69//53 81//53
f 34//54 20//54 68//54 71//54
f 30//55 15//55 67//55 70//55
f 40//56 9//56 65//56 72//56
f 10//57 76//57 81//57 66//57
f 5//58 74//58 80//58 57//58
f 1//59 77//59 79//59 49//59
f 7//60 75//60 78//60 42//60
f 57//61 80//61 76//61 10//61
f 49//62 79//62 75//62 7//62
f 42//63 78//63 74//63 5//63
f 66//42 81//42 73//42 3//42
